# xmcd
# Track frame offsets:
# 150
# 10625
# 23828
# 33735
# 50686
# 62088
# 75977
# 89083
# 106451
# 121812
# 142362
# 155061
#
# Disc length: 2242 seconds
# Revision: 0
# Processed by: cddbd v1.5.1PL2 Copyright (c) Steve Scherf et al.
# Submitted via: VisiTrax 2.9.10.228 - For more info visit www.synapsa.com
#
DISCID=a208c00c
DTITLE=Barbara Mandrell - Hits [CD1]
DYEAR=1900
DGENRE=
TTITLE0=Sleeping Single In A Double Bed
TTITLE1=Hold Me
TTITLE2=Hey Good Lookin"
TTITLE3=Only A Lonely Heart Knows
TTITLE4=Happy Birthday Heartache
TTITLE5=Standing Room Only
TTITLE6=Till You're Gone
TTITLE7=Years
TTITLE8=Woman To Woman
TTITLE9=He Set My Life To Music
TTITLE10=Midnight Angel
TTITLE11=Married But Not To Each Other
EXTD=
EXTT0=
EXTT1=
EXTT2=
EXTT3=
EXTT4=
EXTT5=
EXTT6=
EXTT7=
EXTT8=
EXTT9=
EXTT10=
EXTT11=
PLAYORDER=
